Note: This is standard definition satellite capture. While the video quality of this concert is not great, AFAIK my source was the best that is available. I have included two samples that I suggest you view before downloading the entire file. Many more excerpts from this concert can be found on YouTube

Broadcast on BBC4 13/3/2009
Repeat of a 2007 Prom

Handel
Music for the Royal Fireworks (25 mins)

Ode for the Birthday of Queen Anne -
'Eternal source of light divine' (4 mins)
Acis and Galatea - 'Love Sounds th'alarm' (5 mins)

Concerto a due cori in F major, HWV 333 (16 mins)

L'Allegro, il Penseroso ed il Moderato - 'As Steals the Morn' (7 mins)
Acis and Galatea - 'Happy we!' (3 mins)

Purcell, arr. Catherine Mackintosh
Sett of Favourite Airs, Fantasies and Dances (16 mins)

Kate Royal soprano
Ian Bostridge tenor
Orchestra of the Age of Enlightenment
Rachel Podger violin/director
Freiburg Baroque Orchestra
Gottfried von der Goltz violin/director

Source: Freesat SDTV capture thanks to GringoLoco
Encoding: x.264 using Handbrake 'High Profile' with AC3 passthrough
Format: MKV (MP4 would have required reencoding the audio)
Runtime: 1:14

Format version : Version 2
File size : 1.64 GiB
Duration : 1h 13mn
Overall bit rate : 3 169 Kbps
Writing application : HandBrake 0.9.5
Writing library : libmkv 0.6.4.1

Video
ID : 1
Format : AVC
Format/Info : Advanced Video Codec
Format profile : High@L3.0
Format settings, CABAC : Yes
Format settings, ReFrames : 4 frames
Codec ID : V_MPEG4/ISO/AVC
Duration : 1h 13mn
Bit rate : 2 850 Kbps
Width : 720 pixels
Height : 576 pixels
Display aspect ratio : 16:9
Original display aspect ratio : 16:9
Frame rate mode : Variable
Frame rate : 25.000 fps
Standard : PAL
Color space : YUV
Chroma subsampling : 4:2:0
Bit depth : 8 bits
Scan type : Progressive
Bits/(Pixel*Frame) : 0.275
Stream size : 1.47 GiB (90%)
Writing library : x264 core 112

Audio
ID : 2
Format : AC-3
Format/Info : Audio Coding 3
Mode extension : CM (complete main)
Codec ID : A_AC3
Duration : 1h 13mn
Bit rate mode : Constant
Bit rate : 256 Kbps
Channel(s) : 2 channels
Channel positions : Front: L R
Sampling rate : 48.0 KHz
Bit depth : 16 bits
Compression mode : Lossy
Stream size : 135 MiB (8%)